<svg width="66" height="77" viewBox="0 0 66 77" fill="none" xmlns="http://www.w3.org/2000/svg">
<path d="M65.5818 26.5352C65.5818 44.2871 56.458 64.707 32.0013 76.2C7.69605 64.031 0.418198 43.6069 0.418213 26.5352C0.418227 10.387 19.208 0 32.0013 0C44.7946 0 65.5818 10.387 65.5818 26.5352Z" fill="#A4E0FF"/>
<path d="M48.1578 20.4507V20.6211C48.1578 23.0473 46.191 25.0141 43.7649 25.0141H22.245C19.7248 25.0141 17.6817 22.971 17.6817 20.4507C17.6817 17.9304 19.7248 15.8873 22.245 15.8873H43.5945C46.1147 15.8873 48.1578 17.9304 48.1578 20.4507Z" stroke="#33BCBC" stroke-width="10"/>
<path d="M22.0301 31.5353H43.9598V44.9741C43.9598 51.0713 39.017 56.0141 32.9197 56.0141C26.8224 56.0141 21.8796 51.0713 21.8796 44.974V31.6858C21.8796 31.6558 21.8847 31.6398 21.8894 31.6287C21.8954 31.6143 21.9064 31.5966 21.9237 31.5794C21.9409 31.5621 21.9586 31.5511 21.973 31.5451C21.9841 31.5404 22.0001 31.5353 22.0301 31.5353Z" stroke="#A4E0FF" stroke-width="10"/>
<path d="M26.0109 31.3666C24.7772 31.3666 24.0771 30.997 23.4298 30.6547C20.1196 28.9041 17.6816 33.7199 17.6816 37.4644V51.1707C17.6816 52.1939 17.8403 53.211 18.1522 54.1856L18.3871 54.9197C18.7714 56.1205 19.47 57.1965 20.4105 58.0362C21.7051 59.1921 23.3799 59.8309 25.1154 59.8309H32.4733H40.3386C41.3059 59.8309 42.2611 59.6151 43.1345 59.1991C44.6567 58.474 45.8378 57.1859 46.4284 55.6067L47.3638 53.1056C47.7828 51.9853 47.9973 50.7988 47.9973 49.6027V35.644C47.9973 32.9121 46.5587 30.3577 43.868 30.8303C43.2606 30.937 42.576 31.1085 41.8079 31.3666C37.2295 32.9052 36.5228 30.201 33.9379 30.201C31.3529 30.201 29.4575 31.3666 26.0109 31.3666Z" fill="#FDFDFD" stroke="#FCB4CE" stroke-width="2"/>
<path d="M32.9048 33.2958C30.6975 33.2983 28.5813 34.1622 27.0205 35.698C25.4596 37.2337 24.5816 39.3158 24.579 41.4877C24.5764 43.2625 25.1656 44.9892 26.2563 46.4028C26.2563 46.4028 26.4833 46.697 26.5204 46.7394L32.9048 54.1479L39.2922 46.7357C39.3255 46.6962 39.5534 46.4028 39.5534 46.4028L39.5541 46.4006C40.6443 44.9876 41.2332 43.2617 41.2306 41.4877C41.228 39.3158 40.35 37.2337 38.7892 35.698C37.2284 34.1622 35.1122 33.2983 32.9048 33.2958V33.2958ZM36.0913 42.0105L32.9071 45.2113L29.7183 42.0105C29.3354 41.6215 29.1213 41.1013 29.1213 40.5598C29.1213 40.0183 29.3354 39.498 29.7183 39.109C29.9061 38.9192 30.1306 38.7682 30.3786 38.6652C30.6267 38.5621 30.8932 38.509 31.1625 38.509C31.4317 38.509 31.6982 38.5621 31.9463 38.6652C32.1943 38.7682 32.4188 38.9192 32.6066 39.109L32.9071 39.4107L33.2045 39.109C33.3923 38.9192 33.6168 38.7682 33.8649 38.6652C34.1129 38.5621 34.3794 38.509 34.6487 38.509C34.918 38.509 35.1845 38.5621 35.4325 38.6652C35.6806 38.7682 35.9051 38.9192 36.0928 39.109C36.4757 39.498 36.6898 40.0183 36.6898 40.5598C36.6898 41.1013 36.4757 41.6215 36.0928 42.0105H36.0913Z" fill="#33BCBC"/>
</svg>
