<svg width="66" height="77" viewBox="0 0 66 77" fill="none" xmlns="http://www.w3.org/2000/svg">
<path d="M65.5818 26.5352C65.5818 44.2871 56.458 64.707 32.0013 76.2C7.69605 64.031 0.418198 43.6069 0.418213 26.5352C0.418227 10.387 19.208 0 32.0013 0C44.7946 0 65.5818 10.387 65.5818 26.5352Z" fill="#FF9494"/>
<path d="M48.1578 20.4506V20.621C48.1578 23.0472 46.191 25.014 43.7649 25.014H22.245C19.7248 25.014 17.6817 22.9709 17.6817 20.4506C17.6817 17.9303 19.7247 15.8872 22.245 15.8872H43.5945C46.1147 15.8872 48.1578 17.9303 48.1578 20.4506Z" stroke="#33BCBC" stroke-width="10"/>
<path d="M22.0301 31.5352H43.9598V44.9739C43.9598 51.0712 39.017 56.014 32.9197 56.014C26.8224 56.014 21.8796 51.0712 21.8796 44.9739V31.6856C21.8796 31.6556 21.8847 31.6397 21.8894 31.6286C21.8954 31.6142 21.9064 31.5965 21.9237 31.5792C21.9409 31.562 21.9586 31.551 21.973 31.5449C21.9841 31.5403 22.0001 31.5352 22.0301 31.5352Z" stroke="#FF9494" stroke-width="10"/>
<path d="M26.0109 31.3666C24.7772 31.3666 24.0771 30.997 23.4298 30.6547C20.1196 28.9041 17.6816 33.7199 17.6816 37.4644V51.1707C17.6816 52.1939 17.8403 53.211 18.1522 54.1856L18.3871 54.9197C18.7714 56.1205 19.47 57.1965 20.4105 58.0362C21.7051 59.1921 23.3799 59.8309 25.1154 59.8309H32.4733H40.3386C41.3059 59.8309 42.2611 59.6151 43.1345 59.1991C44.6567 58.474 45.8378 57.1859 46.4284 55.6067L47.3638 53.1056C47.7828 51.9853 47.9973 50.7988 47.9973 49.6027V35.644C47.9973 32.9121 46.5587 30.3577 43.868 30.8303C43.2606 30.937 42.576 31.1085 41.8079 31.3666C37.2295 32.9052 36.5228 30.201 33.9379 30.201C31.3529 30.201 29.4575 31.3666 26.0109 31.3666Z" fill="#FDFDFD" stroke="#FCB4CE" stroke-width="2"/>
<path d="M32.9048 33.2957C30.6975 33.2982 28.5813 34.1621 27.0205 35.6978C25.4596 37.2336 24.5816 39.3157 24.579 41.4876C24.5764 43.2624 25.1656 44.9891 26.2563 46.4027C26.2563 46.4027 26.4833 46.6969 26.5204 46.7393L32.9048 54.1478L39.2922 46.7356C39.3255 46.6961 39.5534 46.4027 39.5534 46.4027L39.5541 46.4005C40.6443 44.9874 41.2332 43.2616 41.2306 41.4876C41.228 39.3157 40.35 37.2336 38.7892 35.6978C37.2284 34.1621 35.1122 33.2982 32.9048 33.2957V33.2957ZM36.0913 42.0103L32.9071 45.2111L29.7183 42.0103C29.3354 41.6214 29.1213 41.1011 29.1213 40.5596C29.1213 40.0181 29.3354 39.4979 29.7183 39.1089C29.9061 38.919 30.1306 38.7681 30.3786 38.6651C30.6267 38.562 30.8932 38.5089 31.1625 38.5089C31.4317 38.5089 31.6982 38.562 31.9463 38.6651C32.1943 38.7681 32.4188 38.919 32.6066 39.1089L32.9071 39.4105L33.2045 39.1089C33.3923 38.919 33.6168 38.7681 33.8649 38.6651C34.1129 38.562 34.3794 38.5089 34.6487 38.5089C34.918 38.5089 35.1845 38.562 35.4325 38.6651C35.6806 38.7681 35.9051 38.919 36.0928 39.1089C36.4757 39.4979 36.6898 40.0181 36.6898 40.5596C36.6898 41.1011 36.4757 41.6214 36.0928 42.0103H36.0913Z" fill="#33BCBC"/>
</svg>
